<svg xmlns="http://www.w3.org/2000/svg" width="1024" height="1024" viewBox="0 0 1024 1024" role="img" aria-label="Gobot">
  <defs>
    <filter id="outline-glow" x="-35%" y="-35%" width="170%" height="170%">
      <feGaussianBlur stdDeviation="18" result="blur"/>
      <feColorMatrix in="blur" type="matrix" values="0 0 0 0 0.10 0 0 0 0 0.75 0 0 0 0 0.95 0 0 0 0.82 0"/>
      <feMerge>
        <feMergeNode/>
        <feMergeNode in="SourceGraphic"/>
      </feMerge>
    </filter>
  </defs>

  <rect width="1024" height="1024" rx="220" fill="#2f3438"/>

  <g filter="url(#outline-glow)" fill="none" stroke="#34d5ff" stroke-width="48" stroke-linecap="round" stroke-linejoin="round">
    <path d="M278 238h-76v76"/>
    <path d="M746 238h76v76"/>
    <path d="M822 710v76h-76"/>
    <path d="M202 710v76h76"/>
    <rect x="202" y="238" width="620" height="548" rx="24" stroke-opacity="0.28"/>
  </g>

  <g fill="#f3f5f7">
    <path d="M512 250c-114 0-206 82-206 184v40h-50c-35 0-64 29-64 64v102c0 35 29 64 64 64h54c33 64 102 106 202 106s169-42 202-106h54c35 0 64-29 64-64V538c0-35-29-64-64-64h-50v-40c0-102-92-184-206-184z"/>
    <rect x="328" y="354" width="368" height="292" rx="86"/>
  </g>

  <rect x="374" y="402" width="276" height="170" rx="58" fill="#30363a"/>
  <circle cx="442" cy="488" r="34" fill="#34d5ff"/>
  <circle cx="582" cy="488" r="34" fill="#34d5ff"/>
  <path d="M446 572c42 26 90 26 132 0" fill="none" stroke="#34d5ff" stroke-width="28" stroke-linecap="round"/>
  <path d="M512 250v-74" fill="none" stroke="#f3f5f7" stroke-width="42" stroke-linecap="round"/>
  <circle cx="512" cy="150" r="30" fill="#f3f5f7"/>
</svg>
